PathFileType	4	(X/Y/Z)	CPRIT_Patient3_R_HipIso_Processed.TRC
DataRate	CameraRate	NumFrames	NumMarkers	Units	OrigDataRate	OrigDataStartFrame	OrigNumFrames
150.128314798973	150.128314798973	4	39	m	150.128314798973	293	       1171
Frame#	Time	R.Heel			R.Midfoot.Superior			R.Midfoot.Lateral			R.Toe			L.Heel			L.Midfoot.Superior			L.Midfoot.Lateral			L.Toe			R.Shank.Superior			R.Shank.Inferior			R.Shank.Lateral			R.Shank.Posterior			L.Shank.Superior			L.Shank.Inferior			L.Shank.Posterior			L.Shank.Lateral			R.Patella			L.Patella			R.Thigh.Superior			R.Thigh.Lateral			R.Thigh.Inferior			L.Thigh.Superior			L.Thigh.Inferior			L.Thigh.Lateral			L.Asis			R.Asis			Sacral			R.Shoulder			L.Shoulder			C7			J.Notch			Sternum			Thoracic			L.Elbow			L.Wrist			R.Elbow			R.Wrist			R.PSIS			L.PSIS			
		X1	Y1	Z1	X2	Y2	Z2	X3	Y3	Z3	X4	Y4	Z4	X5	Y5	Z5	X6	Y6	Z6	X7	Y7	Z7	X8	Y8	Z8	X9	Y9	Z9	X10	Y10	Z10	X11	Y11	Z11	X12	Y12	Z12	X13	Y13	Z13	X14	Y14	Z14	X15	Y15	Z15	X16	Y16	Z16	X17	Y17	Z17	X18	Y18	Z18	X19	Y19	Z19	X20	Y20	Z20	X21	Y21	Z21	X22	Y22	Z22	X23	Y23	Z23	X24	Y24	Z24	X25	Y25	Z25	X26	Y26	Z26	X27	Y27	Z27	X28	Y28	Z28	X29	Y29	Z29	X30	Y30	Z30	X31	Y31	Z31	X32	Y32	Z32	X33	Y33	Z33	X34	Y34	Z34	X35	Y35	Z35	X36	Y36	Z36	X37	Y37	Z37	X38	Y38	Z38	X39	Y39	Z39	

293	1.945002849003	0.247002076428	0.243589252520	-0.223128614252	0.376014922706	0.208455286573	-0.106304958882	0.260209002410	0.207004202641	-0.136159953462	0.425432358980	0.116191226865	-0.037378061143	0.720496786547	0.042576966144	-0.222059985083	0.890703121388	0.096680558406	-0.215371662356	0.806614185435	0.032936111942	-0.268788902258	1.007729087524	0.058411145042	-0.204194892701	0.506023999180	0.421384899259	-0.060042392604	0.425610561186	0.336827422011	-0.093806791820	0.390885360257	0.431597505372	-0.066165448683	0.424890889134	0.504167111499	-0.133605422985	0.844653483938	0.366141758158	-0.245620654719	0.836398260507	0.238940979687	-0.234733849986	0.711469085384	0.340008675404	-0.275326859844	0.794642685482	0.279214621297	-0.306490705946	0.606087450308	0.501794098929	-0.032732583792	0.862403689866	0.479261873852	-0.231126880344	0.758676030532	0.787872411174	0.019070679932	0.640832921533	0.753747221358	0.017932918089	0.705205555596	0.636130148808	-0.015800154902	0.916871985339	0.764646936880	-0.236032771457	0.892490441870	0.614792250791	-0.222832868073	0.838045934977	0.705572191892	-0.323207656873	0.917936201401	0.911191759803	-0.215046534779	0.818151262528	0.939481954355	0.001131405714	0.718629011223	1.026166889162	-0.179593932274	0.838637601765	1.417082908198	0.036411336266	0.961644584695	1.444342461734	-0.268881236970	0.863625711630	1.479228081420	-0.121403592655	0.962824165805	1.363321391126	-0.092573493154	0.988468162512	1.174318220472	-0.093416981699	0.765176976226	1.340579277531	-0.174484276608	0.908741047236	1.183851721314	-0.471759538086	1.060755747422	0.972634571802	-0.486513491411	0.757705918907	1.155639697215	0.210875439873	0.842949999330	0.988973373805	0.397893493883	0.707515007479	1.033361984944	-0.145197277636	0.734043916808	1.020506743346	-0.214532774719	
294	1.951663817664	0.256497678410	0.235542467948	-0.218304157374	0.386964830088	0.203092077606	-0.102379291184	0.271004240668	0.199537790978	-0.131280405598	0.438519187523	0.112073272847	-0.033367622075	0.720496082080	0.042580199470	-0.222054504286	0.890710012479	0.096674230067	-0.215372955899	0.806613323634	0.032942204881	-0.268784092251	1.007735328239	0.058398249124	-0.204204609337	0.513770322819	0.417913177224	-0.057532949121	0.434473952659	0.332041585920	-0.090543421374	0.398467802499	0.426251260125	-0.062803130429	0.430755031454	0.499267260084	-0.130592038386	0.844672226611	0.366113521607	-0.245562845247	0.836420416775	0.238925455091	-0.234674598960	0.711426498902	0.340003665470	-0.275139361575	0.794695017963	0.279182732519	-0.306508353381	0.612695225212	0.499861802844	-0.031162372899	0.862458421144	0.479260191771	-0.231144348298	0.761414747423	0.787839939137	0.019240997261	0.644173625765	0.752252979879	0.019282497594	0.709822438256	0.635515754171	-0.015054144401	0.916881492343	0.764800996996	-0.235933326964	0.892528868095	0.614838278464	-0.222734070044	0.838009434293	0.705631791442	-0.322891175832	0.917788523039	0.911459641439	-0.215432399330	0.818722205255	0.939946939406	0.000939606011	0.718278381245	1.025995541285	-0.179585087937	0.838034070832	1.417255663194	0.036215422791	0.960964204326	1.444635149103	-0.269096166751	0.862910387541	1.479432798197	-0.121569486568	0.962284109335	1.363632884735	-0.092738388006	0.988066272103	1.174686923982	-0.093691250036	0.764652093502	1.340653204285	-0.174681883838	0.908495230243	1.183780536792	-0.471694811095	1.060660409960	0.972663325532	-0.486466170385	0.757719359670	1.155592806812	0.211221931665	0.842993709298	0.988978793976	0.397914872188	0.707203231085	1.032972769804	-0.145043400190	0.733631092897	1.020350351886	-0.214532946074	
295	1.958324786325	0.266313104522	0.227513329479	-0.213405750413	0.398185017810	0.197817824479	-0.098394621429	0.282118257236	0.192128103259	-0.126330012716	0.451877083733	0.108107065043	-0.029300775801	0.720494620022	0.042583737582	-0.222049490938	0.890717109094	0.096667907893	-0.215374425042	0.806612522746	0.032948359832	-0.268779207990	1.007741645144	0.058385045946	-0.204214737378	0.521690121696	0.414518663858	-0.054978440872	0.443561539508	0.327329004289	-0.087230359564	0.406261417121	0.420951108475	-0.059396356853	0.436802592119	0.494380479941	-0.127534461287	0.844687567079	0.366086699883	-0.245501224588	0.836440113512	0.238909851992	-0.234615094788	0.711378109747	0.339994787362	-0.274951918162	0.794741799333	0.279148992361	-0.306522435301	0.619423107057	0.498011755921	-0.029565129449	0.862507182686	0.479260956974	-0.231162112742	0.764182184221	0.787858531459	0.019433885385	0.647573062401	0.750808019432	0.020655479207	0.714497383235	0.634970113490	-0.014274604729	0.916885199899	0.764960834486	-0.235820505390	0.892560446601	0.614885038652	-0.222628979815	0.837971150976	0.705695902415	-0.322564352580	0.917626049439	0.911729324114	-0.215826351487	0.819283129643	0.940431657972	0.000741120860	0.717919733293	1.025823869098	-0.179571147396	0.837418379214	1.417430400528	0.036016465533	0.960277100081	1.444925705850	-0.269312318360	0.862183957794	1.479637696549	-0.121742034060	0.961732943548	1.363943898006	-0.092905011655	0.987652173652	1.175054695394	-0.093967425774	0.764118454120	1.340726752940	-0.174888621358	0.908252232634	1.183709418371	-0.471632864613	1.060566024190	0.972691014607	-0.486420955600	0.757743549440	1.155547991961	0.211595477228	0.843040160712	0.988984622006	0.397936791135	0.706889460927	1.032591165731	-0.144886607329	0.733204207411	1.020200988652	-0.214538069046	
296	1.964985754986	0.276439432436	0.219520587504	-0.208438547941	0.409663401109	0.192645818602	-0.094356711579	0.293540147341	0.184792466748	-0.121315560999	0.465489852729	0.104303534399	-0.025186330387	0.720492354183	0.042587585975	-0.222044982314	0.890724445522	0.096661628590	-0.215375992683	0.806611814838	0.032954544918	-0.268774248550	1.007748020283	0.058371516328	-0.204225246630	0.529773465177	0.411211666382	-0.052383706980	0.452863376776	0.322702306316	-0.083871849749	0.414257764556	0.415709689867	-0.055949408898	0.443026886928	0.489517628759	-0.124436879429	0.844699941419	0.366061828364	-0.245434860037	0.836457439641	0.238894139109	-0.234555509684	0.711324407044	0.339982030934	-0.274765031485	0.794782270679	0.279113804294	-0.306531758060	0.626261421258	0.496251722571	-0.027943787939	0.862550118805	0.479264430739	-0.231179689846	0.766972238180	0.787930116776	0.019650685271	0.651024505481	0.749416082756	0.022049042204	0.719221913137	0.634496517941	-0.013464708352	0.916883500542	0.765126313233	-0.235695271239	0.892585793161	0.614932388952	-0.222517977495	0.837930828601	0.705764426358	-0.322228714322	0.917448825124	0.912000780040	-0.216227386932	0.819833264158	0.940934828567	0.000536637672	0.717553456101	1.025651362686	-0.179551607647	0.836790335182	1.417606107549	0.035814279137	0.959584143661	1.445212902275	-0.269529470370	0.861447844783	1.479842188413	-0.121920905932	0.961170600246	1.364253056923	-0.093073423827	0.987225979761	1.175420455862	-0.094244975136	0.763575977639	1.340800363952	-0.175104367480	0.908012217703	1.183638045259	-0.471573996668	1.060472906569	0.972717438591	-0.486378122520	0.757777244344	1.155505492930	0.211993719020	0.843089147602	0.988990847419	0.397959120671	0.706573427925	1.032218002128	-0.144727467396	0.732763591382	1.020058503332	-0.214547936470	
